<svg xmlns="http://www.w3.org/2000/svg" viewBox="0 0 300 320" width="300" height="320">
  <defs>

    <!-- ── Gradients ── -->
    <linearGradient id="skinA" x1="0%" y1="0%" x2="100%" y2="100%">
      <stop offset="0%" style="stop-color:#FDDCB5"/>
      <stop offset="100%" style="stop-color:#F0B880"/>
    </linearGradient>
    <linearGradient id="skinB" x1="0%" y1="0%" x2="100%" y2="100%">
      <stop offset="0%" style="stop-color:#F5C9A0"/>
      <stop offset="100%" style="stop-color:#E0A060"/>
    </linearGradient>
    <linearGradient id="coat" x1="0%" y1="0%" x2="0%" y2="100%">
      <stop offset="0%" style="stop-color:#FFFFFF"/>
      <stop offset="100%" style="stop-color:#DFF0FA"/>
    </linearGradient>
    <linearGradient id="scrubs" x1="0%" y1="0%" x2="100%" y2="100%">
      <stop offset="0%" style="stop-color:#29B6F6"/>
      <stop offset="100%" style="stop-color:#0277BD"/>
    </linearGradient>
    <linearGradient id="scrubs2" x1="0%" y1="0%" x2="100%" y2="100%">
      <stop offset="0%" style="stop-color:#26C6DA"/>
      <stop offset="100%" style="stop-color:#00838F"/>
    </linearGradient>
    <linearGradient id="hair1" x1="0%" y1="0%" x2="100%" y2="100%">
      <stop offset="0%" style="stop-color:#4E342E"/>
      <stop offset="100%" style="stop-color:#3E2723"/>
    </linearGradient>
    <linearGradient id="hair2" x1="0%" y1="0%" x2="100%" y2="100%">
      <stop offset="0%" style="stop-color:#FFA000"/>
      <stop offset="100%" style="stop-color:#E65100"/>
    </linearGradient>
    <linearGradient id="hair3" x1="0%" y1="0%" x2="100%" y2="100%">
      <stop offset="0%" style="stop-color:#37474F"/>
      <stop offset="100%" style="stop-color:#263238"/>
    </linearGradient>
    <linearGradient id="crossRed" x1="0%" y1="0%" x2="100%" y2="100%">
      <stop offset="0%" style="stop-color:#EF5350"/>
      <stop offset="100%" style="stop-color:#B71C1C"/>
    </linearGradient>
    <linearGradient id="gold" x1="0%" y1="0%" x2="100%" y2="100%">
      <stop offset="0%" style="stop-color:#FFE066"/>
      <stop offset="100%" style="stop-color:#F4A100"/>
    </linearGradient>
    <linearGradient id="blueBg" x1="0%" y1="0%" x2="100%" y2="100%">
      <stop offset="0%" style="stop-color:#E3F4FC"/>
      <stop offset="100%" style="stop-color:#B8DCEF"/>
    </linearGradient>
    <linearGradient id="teal" x1="0%" y1="0%" x2="100%" y2="100%">
      <stop offset="0%" style="stop-color:#00BCD4"/>
      <stop offset="100%" style="stop-color:#00838F"/>
    </linearGradient>
    <linearGradient id="clipboard" x1="0%" y1="0%" x2="0%" y2="100%">
      <stop offset="0%" style="stop-color:#F5F5F5"/>
      <stop offset="100%" style="stop-color:#E0E0E0"/>
    </linearGradient>
    <linearGradient id="stethoscope" x1="0%" y1="0%" x2="100%" y2="100%">
      <stop offset="0%" style="stop-color:#546E7A"/>
      <stop offset="100%" style="stop-color:#263238"/>
    </linearGradient>

    <!-- ── Filters ── -->
    <filter id="sh" x="-15%" y="-15%" width="130%" height="130%">
      <feDropShadow dx="0" dy="4" stdDeviation="5" flood-color="#0277BD" flood-opacity="0.18"/>
    </filter>
    <filter id="shDark" x="-15%" y="-15%" width="130%" height="130%">
      <feDropShadow dx="0" dy="3" stdDeviation="4" flood-color="#000" flood-opacity="0.15"/>
    </filter>
    <filter id="glow" x="-60%" y="-60%" width="220%" height="220%">
      <feGaussianBlur stdDeviation="4" result="b"/>
      <feMerge><feMergeNode in="b"/><feMergeNode in="SourceGraphic"/></feMerge>
    </filter>
    <filter id="glowSm" x="-40%" y="-40%" width="180%" height="180%">
      <feGaussianBlur stdDeviation="2.5" result="b"/>
      <feMerge><feMergeNode in="b"/><feMergeNode in="SourceGraphic"/></feMerge>
    </filter>

  </defs>

  <!-- ══════════════════════════════════════════════════ -->
  <!--  BACKGROUND CIRCLE — soft hospital blue            -->
  <!-- ══════════════════════════════════════════════════ -->
  <circle cx="150" cy="152" r="142" fill="url(#blueBg)" opacity="0.55"/>
  <!-- inner ring -->
  <circle cx="150" cy="152" r="138" fill="none" stroke="#29B6F6" stroke-width="1" stroke-opacity="0.2" stroke-dasharray="6 5"/>

  <!-- subtle cross watermark bg -->
  <rect x="135" y="30" width="30" height="90" rx="8" fill="#29B6F6" fill-opacity="0.06"/>
  <rect x="105" y="60" width="90" height="30" rx="8" fill="#29B6F6" fill-opacity="0.06"/>

  <!-- ══════════════════════════════════════════════════ -->
  <!--  FLOOR / BASE                                      -->
  <!-- ══════════════════════════════════════════════════ -->
  <ellipse cx="150" cy="275" rx="120" ry="10" fill="#29B6F6" fill-opacity="0.12"/>

  <!-- ══════════════════════════════════════════════════ -->
  <!--  FIGURE 1 — DOCTOR (left, white coat, male)        -->
  <!-- ══════════════════════════════════════════════════ -->
  <g filter="url(#sh)">
    <!-- legs -->
    <rect x="56" y="230" width="18" height="48" rx="8" fill="#37474F"/>
    <rect x="78" y="230" width="18" height="48" rx="8" fill="#37474F"/>
    <!-- shoes -->
    <ellipse cx="65" cy="278" rx="12" ry="6" fill="#263238"/>
    <ellipse cx="87" cy="278" rx="12" ry="6" fill="#263238"/>
    <!-- body / white coat -->
    <path d="M46,165 Q44,148 55,143 Q70,136 76,136 L84,136 Q90,136 105,143 Q116,148 114,165 L116,234 Q116,238 108,238 L52,238 Q44,238 44,234 Z"
          fill="url(#coat)"/>
    <!-- coat lapels -->
    <path d="M76,138 Q80,158 84,138" fill="#DFF0FA" fill-opacity="0.8"/>
    <!-- scrubs underneath visible at bottom -->
    <rect x="58" y="210" width="44" height="28" rx="4" fill="url(#scrubs)" fill-opacity="0.3"/>
    <!-- coat pocket -->
    <rect x="52" y="178" width="18" height="22" rx="3" fill="#DFF0FA" stroke="#B0D8F0" stroke-width="0.8"/>
    <!-- pen in pocket -->
    <line x1="58" y1="178" x2="57" y2="168" stroke="#EF5350" stroke-width="2.5" stroke-linecap="round"/>
    <line x1="62" y1="178" x2="61" y2="167" stroke="#29B6F6" stroke-width="2.5" stroke-linecap="round"/>
    <!-- small red cross on coat breast -->
    <rect x="95" y="155" width="10" height="4" rx="1.5" fill="url(#crossRed)"/>
    <rect x="98" y="152" width="4" height="10" rx="1.5" fill="url(#crossRed)"/>
    <!-- neck / collar -->
    <rect x="73" y="130" width="14" height="10" rx="4" fill="url(#skinA)"/>
    <!-- head -->
    <circle cx="80" cy="115" r="22" fill="url(#skinA)"/>
    <!-- hair -->
    <path d="M58,110 Q60,88 80,87 Q100,88 102,110 Q96,96 80,95 Q64,96 58,110 Z"
          fill="url(#hair3)"/>
    <!-- ear left -->
    <ellipse cx="58" cy="116" rx="4" ry="6" fill="#F0B880"/>
    <!-- ear right -->
    <ellipse cx="102" cy="116" rx="4" ry="6" fill="#F0B880"/>
    <!-- eyes -->
    <ellipse cx="73" cy="114" rx="3.5" ry="3" fill="#37474F"/>
    <ellipse cx="87" cy="114" rx="3.5" ry="3" fill="#37474F"/>
    <circle cx="74" cy="113" r="1" fill="white"/>
    <circle cx="88" cy="113" r="1" fill="white"/>
    <!-- smile -->
    <path d="M73,122 Q80,128 87,122" fill="none" stroke="#C8844A" stroke-width="1.8" stroke-linecap="round"/>
    <!-- eyebrows -->
    <path d="M70,109 Q73,106 77,108" fill="none" stroke="#37474F" stroke-width="1.5" stroke-linecap="round"/>
    <path d="M83,108 Q87,106 90,109" fill="none" stroke="#37474F" stroke-width="1.5" stroke-linecap="round"/>
    <!-- arms -->
    <!-- left arm -->
    <path d="M44,165 Q32,185 34,210" fill="none" stroke="url(#coat)" stroke-width="20" stroke-linecap="round"/>
    <!-- right arm holding clipboard -->
    <path d="M116,165 Q128,185 124,210" fill="none" stroke="url(#coat)" stroke-width="20" stroke-linecap="round"/>
    <!-- hand right -->
    <ellipse cx="122" cy="212" rx="10" ry="8" fill="url(#skinA)"/>
  </g>

  <!-- ══════════════════════════════════════════════════ -->
  <!--  STETHOSCOPE on doctor                            -->
  <!-- ══════════════════════════════════════════════════ -->
  <g filter="url(#shDark)">
    <path d="M70,138 Q58,145 54,158 Q52,168 58,174 Q66,182 74,174 Q80,168 76,160"
          fill="none" stroke="url(#stethoscope)" stroke-width="4" stroke-linecap="round"/>
    <path d="M90,138 Q102,145 106,158 Q108,168 102,174 Q94,182 86,174 Q80,168 84,160"
          fill="none" stroke="url(#stethoscope)" stroke-width="4" stroke-linecap="round"/>
    <!-- chest piece -->
    <circle cx="80" cy="160" r="7" fill="url(#stethoscope)" stroke="#90A4AE" stroke-width="1.5"/>
    <circle cx="80" cy="160" r="3.5" fill="#90A4AE"/>
    <!-- earpieces -->
    <circle cx="58" cy="138" r="4" fill="url(#stethoscope)"/>
    <circle cx="102" cy="138" r="4" fill="url(#stethoscope)"/>
  </g>

  <!-- ══════════════════════════════════════════════════ -->
  <!--  CLIPBOARD in doctor's right hand                 -->
  <!-- ══════════════════════════════════════════════════ -->
  <g transform="translate(118,195)" filter="url(#shDark)">
    <rect x="0" y="0" width="32" height="42" rx="4" fill="url(#clipboard)" stroke="#B0BEC5" stroke-width="1"/>
    <!-- clip top -->
    <rect x="10" y="-5" width="12" height="9" rx="3" fill="#78909C"/>
    <!-- lines -->
    <rect x="5" y="10" width="22" height="2.5" rx="1.2" fill="#29B6F6" fill-opacity="0.8"/>
    <rect x="5" y="16" width="18" height="2" rx="1"   fill="#90A4AE"/>
    <rect x="5" y="21" width="20" height="2" rx="1"   fill="#90A4AE"/>
    <rect x="5" y="26" width="15" height="2" rx="1"   fill="#90A4AE"/>
    <!-- checkmark -->
    <polyline points="5,36 9,40 20,30" fill="none" stroke="#4CAF50" stroke-width="2.5" stroke-linecap="round" stroke-linejoin="round"/>
  </g>

  <!-- ══════════════════════════════════════════════════ -->
  <!--  FIGURE 2 — NURSE (center, scrubs, female)         -->
  <!-- ══════════════════════════════════════════════════ -->
  <g filter="url(#sh)">
    <!-- legs -->
    <rect x="130" y="232" width="18" height="46" rx="8" fill="url(#scrubs2)"/>
    <rect x="152" y="232" width="18" height="46" rx="8" fill="url(#scrubs2)"/>
    <!-- shoes -->
    <ellipse cx="139" cy="278" rx="13" ry="6" fill="#006064"/>
    <ellipse cx="161" cy="278" rx="13" ry="6" fill="#006064"/>
    <!-- body scrubs -->
    <path d="M118,168 Q116,150 128,144 Q142,136 150,136 Q158,136 172,144 Q184,150 182,168 L184,236 Q184,241 175,241 L125,241 Q116,241 116,236 Z"
          fill="url(#scrubs2)"/>
    <!-- scrubs V-neck -->
    <path d="M143,138 Q150,155 157,138" fill="#00838F" fill-opacity="0.5"/>
    <!-- scrubs pocket -->
    <rect x="156" y="178" width="20" height="24" rx="3" fill="#00838F" fill-opacity="0.5" stroke="#006064" stroke-width="0.8"/>
    <!-- pen in pocket -->
    <line x1="162" y1="178" x2="161" y2="167" stroke="white" stroke-width="2" stroke-linecap="round"/>
    <!-- nurse cross badge -->
    <g transform="translate(130,163)">
      <rect x="-6" y="-2" width="12" height="4" rx="1.5" fill="white"/>
      <rect x="-2" y="-6" width="4" height="12" rx="1.5" fill="white"/>
    </g>
    <!-- neck -->
    <rect x="143" y="130" width="14" height="10" rx="4" fill="url(#skinB)"/>
    <!-- head -->
    <circle cx="150" cy="114" r="24" fill="url(#skinB)"/>
    <!-- hair ponytail (female) -->
    <path d="M126,108 Q128,84 150,83 Q172,84 174,108 Q166,92 150,91 Q134,92 126,108 Z"
          fill="url(#hair1)"/>
    <!-- bun -->
    <circle cx="150" cy="83" r="10" fill="url(#hair1)"/>
    <!-- nurse cap -->
    <path d="M136,96 L150,85 L164,96 Z" fill="white" fill-opacity="0.9"/>
    <rect x="143" y="87" width="14" height="3" rx="1.5" fill="url(#crossRed)" fill-opacity="0.85"/>
    <!-- ears -->
    <ellipse cx="126" cy="115" rx="4" ry="6" fill="#E0A060"/>
    <ellipse cx="174" cy="115" rx="4" ry="6" fill="#E0A060"/>
    <!-- eyes (almond) -->
    <path d="M140,112 Q144,108 148,112 Q144,115 140,112 Z" fill="#37474F"/>
    <path d="M152,112 Q156,108 160,112 Q156,115 152,112 Z" fill="#37474F"/>
    <circle cx="143" cy="112" r="1" fill="white"/>
    <circle cx="155" cy="112" r="1" fill="white"/>
    <!-- lashes -->
    <path d="M139,110 Q137,107 136,105" fill="none" stroke="#37474F" stroke-width="1" stroke-linecap="round"/>
    <path d="M161,110 Q163,107 164,105" fill="none" stroke="#37474F" stroke-width="1" stroke-linecap="round"/>
    <!-- smile -->
    <path d="M142,121 Q150,128 158,121" fill="none" stroke="#C8844A" stroke-width="2" stroke-linecap="round"/>
    <!-- eyebrows -->
    <path d="M138,107 Q142,103 147,106" fill="none" stroke="#4E342E" stroke-width="1.5" stroke-linecap="round"/>
    <path d="M153,106 Q158,103 162,107" fill="none" stroke="#4E342E" stroke-width="1.5" stroke-linecap="round"/>
    <!-- arms -->
    <path d="M116,168 Q100,190 104,215" fill="none" stroke="url(#scrubs2)" stroke-width="20" stroke-linecap="round"/>
    <path d="M184,168 Q200,190 196,215" fill="none" stroke="url(#scrubs2)" stroke-width="20" stroke-linecap="round"/>
    <!-- hands -->
    <ellipse cx="102" cy="217" rx="11" ry="9" fill="url(#skinB)"/>
    <ellipse cx="198" cy="217" rx="11" ry="9" fill="url(#skinB)"/>
  </g>

  <!-- ══════════════════════════════════════════════════ -->
  <!--  FIGURE 3 — HR MANAGER (right, suit, female)       -->
  <!-- ══════════════════════════════════════════════════ -->
  <g filter="url(#sh)">
    <!-- legs -->
    <rect x="204" y="228" width="17" height="50" rx="8" fill="#1A237E"/>
    <rect x="225" y="228" width="17" height="50" rx="8" fill="#1A237E"/>
    <!-- shoes -->
    <ellipse cx="213" cy="278" rx="12" ry="6" fill="#0D1654"/>
    <ellipse cx="234" cy="278" rx="12" ry="6" fill="#0D1654"/>
    <!-- skirt -->
    <path d="M198,210 Q196,225 196,235 L246,235 Q246,225 244,210 Z" fill="#283593" fill-opacity="0.85"/>
    <!-- blazer body -->
    <path d="M192,165 Q190,148 202,143 Q214,137 220,137 L228,137 Q234,137 246,143 Q258,148 256,165 L256,218 Q256,224 248,224 L200,224 Q192,224 192,218 Z"
          fill="#3949AB"/>
    <!-- blazer lapels -->
    <path d="M218,139 Q222,158 226,139" fill="#283593"/>
    <!-- white blouse visible -->
    <path d="M219,139 L224,155" fill="none" stroke="white" stroke-width="5" stroke-linecap="round" stroke-opacity="0.7"/>
    <!-- pocket square -->
    <path d="M244,162 L250,158 L252,164" fill="white" fill-opacity="0.8"/>
    <!-- neck -->
    <rect x="215" y="131" width="14" height="10" rx="4" fill="url(#skinA)"/>
    <!-- head -->
    <circle cx="222" cy="115" r="22" fill="url(#skinA)"/>
    <!-- hair (bob style) -->
    <path d="M200,111 Q202,88 222,87 Q242,88 244,111 Q238,96 222,95 Q206,96 200,111 Z"
          fill="url(#hair2)"/>
    <path d="M200,111 Q198,124 202,130" fill="none" stroke="url(#hair2)" stroke-width="8" stroke-linecap="round"/>
    <path d="M244,111 Q246,124 242,130" fill="none" stroke="url(#hair2)" stroke-width="8" stroke-linecap="round"/>
    <!-- ears -->
    <ellipse cx="200" cy="116" rx="4" ry="6" fill="#F0B880"/>
    <ellipse cx="244" cy="116" rx="4" ry="6" fill="#F0B880"/>
    <!-- earring -->
    <circle cx="200" cy="120" r="3" fill="url(#gold)"/>
    <circle cx="244" cy="120" r="3" fill="url(#gold)"/>
    <!-- eyes -->
    <ellipse cx="215" cy="114" rx="3.5" ry="3" fill="#4E342E"/>
    <ellipse cx="229" cy="114" rx="3.5" ry="3" fill="#4E342E"/>
    <circle cx="216" cy="113" r="1" fill="white"/>
    <circle cx="230" cy="113" r="1" fill="white"/>
    <!-- eyebrows (arched) -->
    <path d="M212,108 Q215,104 219,107" fill="none" stroke="#BF360C" stroke-width="1.5" stroke-linecap="round"/>
    <path d="M225,107 Q229,104 232,108" fill="none" stroke="#BF360C" stroke-width="1.5" stroke-linecap="round"/>
    <!-- smile -->
    <path d="M215,122 Q222,128 229,122" fill="none" stroke="#C8844A" stroke-width="1.8" stroke-linecap="round"/>
    <!-- arms -->
    <path d="M192,165 Q180,188 182,212" fill="none" stroke="#3949AB" stroke-width="20" stroke-linecap="round"/>
    <path d="M256,165 Q268,185 264,210" fill="none" stroke="#3949AB" stroke-width="20" stroke-linecap="round"/>
    <!-- hands -->
    <ellipse cx="180" cy="214" rx="11" ry="9" fill="url(#skinA)"/>
    <ellipse cx="266" cy="212" rx="11" ry="9" fill="url(#skinA)"/>
  </g>

  <!-- ══════════════════════════════════════════════════ -->
  <!--  TABLET in nurse's left hand                      -->
  <!-- ══════════════════════════════════════════════════ -->
  <g transform="translate(82,210)" filter="url(#shDark)">
    <rect x="0" y="0" width="28" height="36" rx="4" fill="#37474F" stroke="#546E7A" stroke-width="1"/>
    <rect x="2" y="4" width="24" height="24" rx="2" fill="#29B6F6" fill-opacity="0.4"/>
    <!-- screen content: small people icons -->
    <circle cx="8"  cy="12" r="3" fill="white" fill-opacity="0.8"/>
    <circle cx="14" cy="12" r="3" fill="white" fill-opacity="0.8"/>
    <circle cx="20" cy="12" r="3" fill="white" fill-opacity="0.8"/>
    <rect x="5"  y="17" width="6" height="5" rx="1.5" fill="white" fill-opacity="0.6"/>
    <rect x="11" y="17" width="6" height="5" rx="1.5" fill="white" fill-opacity="0.6"/>
    <rect x="17" y="17" width="6" height="5" rx="1.5" fill="white" fill-opacity="0.6"/>
    <!-- home button -->
    <circle cx="14" cy="33" r="2" fill="#546E7A"/>
  </g>

  <!-- ══════════════════════════════════════════════════ -->
  <!--  FLOATING ELEMENTS                                 -->
  <!-- ══════════════════════════════════════════════════ -->

  <!-- Medical cross top center -->
  <g transform="translate(150,22)" filter="url(#glow)">
    <rect x="-16" y="-6" width="32" height="12" rx="4" fill="url(#crossRed)"/>
    <rect x="-6" y="-16" width="12" height="32" rx="4" fill="url(#crossRed)"/>
    <rect x="-4" y="-14" width="5" height="8" rx="2" fill="white" fill-opacity="0.3"/>
  </g>

  <!-- Star rating top-left -->
  <g transform="translate(45,40)" filter="url(#glowSm)">
    <polygon points="0,-11 3,-4 11,-4 5,2 7,10 0,6 -7,10 -5,2 -11,-4 -3,-4"
             fill="url(#gold)"/>
  </g>

  <!-- Star top-right -->
  <g transform="translate(255,40)" filter="url(#glowSm)">
    <polygon points="0,-11 3,-4 11,-4 5,2 7,10 0,6 -7,10 -5,2 -11,-4 -3,-4"
             fill="url(#gold)"/>
  </g>

  <!-- Heartbeat pulse line (EKG) -->
  <g filter="url(#glowSm)" opacity="0.7">
    <polyline points="18,58 36,58 42,42 48,74 54,50 60,58 78,58"
              fill="none" stroke="#EF5350" stroke-width="2.5" stroke-linecap="round" stroke-linejoin="round"/>
    <!-- dot at end -->
    <circle cx="78" cy="58" r="3" fill="#EF5350"/>
  </g>

  <!-- EKG right side -->
  <g filter="url(#glowSm)" opacity="0.7">
    <polyline points="222,58 240,58 246,42 252,74 258,50 264,58 282,58"
              fill="none" stroke="#EF5350" stroke-width="2.5" stroke-linecap="round" stroke-linejoin="round"/>
    <circle cx="222" cy="58" r="3" fill="#EF5350"/>
  </g>

  <!-- Small people network (top area, represents HR) -->
  <!-- node connections -->
  <line x1="80" y1="80" x2="108" y2="88"  stroke="#29B6F6" stroke-width="1" stroke-opacity="0.4" stroke-dasharray="3 3"/>
  <line x1="220" y1="80" x2="192" y2="88" stroke="#29B6F6" stroke-width="1" stroke-opacity="0.4" stroke-dasharray="3 3"/>
  <line x1="150" y1="75" x2="150" y2="88" stroke="#29B6F6" stroke-width="1" stroke-opacity="0.4" stroke-dasharray="3 3"/>
  <!-- node dots -->
  <circle cx="80"  cy="78" r="5" fill="#29B6F6" fill-opacity="0.7" filter="url(#glowSm)"/>
  <circle cx="220" cy="78" r="5" fill="#29B6F6" fill-opacity="0.7" filter="url(#glowSm)"/>
  <circle cx="150" cy="72" r="5" fill="#29B6F6" fill-opacity="0.7" filter="url(#glowSm)"/>

  <!-- ══════════════════════════════════════════════════ -->
  <!--  BOTTOM LABEL                                      -->
  <!-- ══════════════════════════════════════════════════ -->
  <rect x="50" y="292" width="200" height="26" rx="13"
        fill="#0277BD" fill-opacity="0.9" filter="url(#shDark)"/>
  <rect x="52" y="293" width="196" height="10" rx="10"
        fill="white" fill-opacity="0.1"/>
  <text x="150" y="307"
        text-anchor="middle"
        font-family="'Segoe UI','Helvetica Neue',Arial,sans-serif"
        font-size="10" font-weight="800" letter-spacing="2"
        fill="white">RECURSOS HUMANOS</text>
  <text x="150" y="315"
        text-anchor="middle"
        font-family="'Segoe UI',Arial,sans-serif"
        font-size="7.5" font-weight="400" letter-spacing="1.5"
        fill="#B3E5FC">Gestión de Personal Hospitalario</text>

</svg>
